# xmcd
#
# Track frame offsets:
#	182
#	15982
#	36757
#	54007
#	73357
#	85880
#	101180
#	119032
#	135980
#	156082
#	177232
#	194782
#	215932
#
# Disc length: 3055 seconds
#
# Revision: 1
# Processed by: cddbd v1.4PL0 Copyright (c) Steve Scherf et al.
# Submitted via: audiograbber 1.81.01
#
DISCID=be0bed0d
DTITLE=Bellamy Brothers - Forever
DYEAR=1996
DGENRE=Country
TTITLE0=Forever Is A Long Way
TTITLE1=If You Ever Leave Me
TTITLE2=I Hit The Jackpot
TTITLE3=No More Lonely Nights
TTITLE4=Build Up The Bridges
TTITLE5=More Than A One Night Feeling
TTITLE6=Our Love Is Like Christmas
TTITLE7=Slow Hurry
TTITLE8=Hangin' In
TTITLE9=Hurricane Alley
TTITLE10=Let's Fall In Love Again
TTITLE11=Anyway I Can
TTITLE12=Mama Likes To Reggae
EXTD=
EXTT0=
EXTT1=
EXTT2=
EXTT3=
EXTT4=
EXTT5=
EXTT6=
EXTT7=
EXTT8=
EXTT9=
EXTT10=
EXTT11=
EXTT12=
PLAYORDER=
